<?xml version="1.0" encoding="utf-8"?>
<!-- Generator: Adobe Illustrator 27.7.0, SVG Export Plug-In . SVG Version: 6.00 Build 0)  -->
<svg version="1.1" id="Layer_1" xmlns="http://www.w3.org/2000/svg" xmlns:xlink="http://www.w3.org/1999/xlink" x="0px" y="0px"
	 viewBox="0 0 390.8 160.7" style="enable-background:new 0 0 390.8 160.7;" xml:space="preserve">
<style type="text/css">
	.st0{fill:#F89723;}
	.st1{fill:#D75A30;}
</style>
<g>
	<path class="st0" d="M50.6,24.4c-0.5,0-0.9-0.4-0.9-0.9v-3.8c0-2,1.5-3.6,3.4-4c2.1-0.4,4.9-1.6,5.7-4.8c0.5-2.1,0.1-4.3-1.2-6.1
		c-1.2-1.7-2.9-2.7-4.9-2.9s-3.9,0.4-5.4,1.8C45.8,5,45,6.9,45,8.9c0,0.5-0.4,0.9-0.9,0.9S43,9.4,43,8.8c0-2.5,1.1-4.8,3-6.5
		s4.3-2.5,6.9-2.2c2.5,0.2,4.8,1.6,6.3,3.7c1.6,2.2,2.1,5,1.5,7.6c-0.8,3.3-3.3,5.5-7.1,6.2c-1.1,0.2-1.9,1.1-1.9,2.2v3.8
		C51.5,24,51.1,24.4,50.6,24.4"/>
	<path class="st0" d="M81.6,76.4c0.7-0.1,1.3,0.5,1.3,1.2c0,0.1,0.2,2.8,0.8,6.4c2.6,0.5,11.6,1.6,19.2-3.8
		c0.4-8.7,0.6-24.2-2.6-31.4c-3.2-7.1-22.8-9.6-22.8-9.6s-8.7,18.3-26,18.2S25.9,38.9,25.9,38.9S6.3,41.1,3.1,48.2
		c-3.3,7.1-3.2,22.6-2.9,31.4c7.6,5.5,16.6,4.5,19.2,4c0.6-3.6,0.8-6.4,0.8-6.4c0.1-0.7,0.7-1.2,1.4-1.1c0.7,0.1,1.2,0.7,1.1,1.3
		c0,0.4-9.4,47.6-12.1,60.2c11.6,9.9,27.1,16.1,40.6,16.2c13.5,0.1,29-5.9,40.8-15.8c-2.6-12.7-11.4-59.9-11.5-60.3
		C80.4,77.1,80.9,76.5,81.6,76.4"/>
	<path class="st1" d="M18.4,89c0.2-0.8,0.4-1.7,0.5-2.6c-1.1,0.2-2.7,0.3-4.6,0.3c-3.9,0-9.1-0.8-14.1-3.8c0.1,2,0.2,3.2,0.2,3.2
		C7.6,89.1,14.9,89.2,18.4,89"/>
	<path class="st1" d="M88.7,87c-1.9,0-3.4-0.2-4.6-0.4c0.1,0.8,0.3,1.7,0.5,2.6c3.5,0.2,10.9,0.3,17.9-2.7c0,0,0.1-1.2,0.2-3.2
		C97.8,86.2,92.6,87,88.7,87"/>
	<path class="st1" d="M51.1,155.7c-13.6-0.1-29.2-6.2-41-16c-0.3,1.5-0.6,2.7-0.8,3.8c10.8,9.4,24.7,15.3,40,15.8
		c1.2,0,1.8-0.1,1.8-0.1s0.6,0.1,1.8,0.1c15.3-0.3,29.4-6.1,40.2-15.4c-0.2-1-0.5-2.3-0.8-3.8C80.4,149.9,64.7,155.8,51.1,155.7"/>
	<path class="st1" d="M33.1,45.2c2.2-1.1,3.9-2.4,5.1-4c1.9-2.5,3.3-4.9,4.5-7c3-5.1,4.5-7.4,9.1-7.4s6.1,2.3,9,7.5
		c1.2,2.1,2.5,4.5,4.4,7.1c1.2,1.6,2.9,3,5,4.1c0.9-1,1.7-2.1,2.4-3c-1.9-0.8-3.4-1.9-4.4-3.3c-1.8-2.4-3-4.7-4.2-6.7
		c-2.8-5-5.3-9.4-12.3-9.4s-9.5,4.3-12.4,9.3c-1.2,2-2.5,4.3-4.3,6.7c-1,1.4-2.6,2.4-4.4,3.3C31.4,43.1,32.2,44.1,33.1,45.2"/>
</g>
<g>
	<g>
		<path class="st1" d="M134.1,62.7v22.2H173v15.6h-38.9v30.6h-19.4v-84h63.5v15.6L134.1,62.7L134.1,62.7z"/>
		<path class="st1" d="M186.5,47.1c0-5.9,4.7-10.4,11.6-10.4s11.6,4.3,11.6,10.1c0,6.2-4.7,10.8-11.6,10.8S186.5,53,186.5,47.1z
			 M188.8,66.6h18.7v64.6h-18.7V66.6z"/>
		<path class="st1" d="M266.6,128c-3.8,2.8-9.5,4.1-15.2,4.1c-15.2,0-24.1-7.8-24.1-23.2V82.4h-10V68h10V52.3H246V68h16v14.4h-16.1
			v26.3c0,5.5,3,8.5,8,8.5c2.8,0,5.5-0.8,7.6-2.4L266.6,128L266.6,128z"/>
		<path class="st1" d="M317.3,128c-3.8,2.8-9.5,4.1-15.2,4.1c-15.2,0-24.1-7.8-24.1-23.2V82.4h-10V68h10V52.3h18.7V68h16.1v14.4
			h-16.1v26.3c0,5.5,3,8.5,8,8.5c2.8,0,5.5-0.8,7.6-2.4L317.3,128L317.3,128z"/>
		<path class="st1" d="M390.8,66.6l-29.2,68.5c-6.2,15.6-15.1,20.3-26.8,20.3c-6.6,0-13.8-2.2-18-5.9l6.8-13.3
			c2.9,2.5,6.8,4.1,10.6,4.1c5.2,0,8-2.3,10.6-8l0.2-0.6l-28-65h19.3l18.1,43.8l18.2-43.8L390.8,66.6L390.8,66.6z"/>
	</g>
	<g>
		<path class="st1" d="M142.8,136.4l-6.4,18.9h-2.1l-5.5-16.1l-5.6,16.1h-2.1l-6.4-18.9h2l5.5,16.2l5.6-16.2h1.9l5.6,16.3l5.5-16.3
			H142.8L142.8,136.4z"/>
		<path class="st1" d="M159.5,147.1v8.2h-1.9v-8c0-3-1.6-4.5-4.3-4.5c-3,0-5,1.9-5,5.1v7.4h-1.9v-20h1.9v8.3c1-1.6,2.9-2.6,5.3-2.6
			C157.1,141,159.5,143,159.5,147.1L159.5,147.1z"/>
		<path class="st1" d="M175.4,146.5v8.8h-1.8v-2.2c-0.9,1.5-2.5,2.4-4.9,2.4c-3.2,0-5.2-1.7-5.2-4.1c0-2.2,1.4-4,5.5-4h4.5v-0.9
			c0-2.4-1.4-3.8-4-3.8c-1.8,0-3.6,0.6-4.7,1.7l-0.9-1.4c1.4-1.2,3.5-1.9,5.8-1.9C173.3,141,175.4,142.9,175.4,146.5L175.4,146.5z
			 M173.5,151.1v-2.3H169c-2.8,0-3.6,1.1-3.6,2.5c0,1.6,1.3,2.7,3.6,2.7S172.7,152.9,173.5,151.1L173.5,151.1z"/>
		<path class="st1" d="M188.1,154.5c-0.8,0.7-1.9,1-3,1c-2.7,0-4.2-1.5-4.2-4.1v-8.6h-2.5v-1.6h2.5V138h1.9v3.1h4.3v1.6h-4.3v8.5
			c0,1.7,0.9,2.6,2.5,2.6c0.8,0,1.6-0.2,2.1-0.7L188.1,154.5L188.1,154.5z"/>
		<path class="st1" d="M203.3,135.2c1,0,2.1,0.3,2.8,0.9l-0.7,1.4c-0.5-0.5-1.3-0.7-2.1-0.7c-1.7,0-2.5,0.9-2.5,2.7v1.7h4.4v1.6
			h-4.3v12.6H199v-12.6h-2.5v-1.6h2.5v-1.8C199,136.8,200.5,135.2,203.3,135.2L203.3,135.2z M212.4,136.6c0,0.8-0.6,1.4-1.4,1.4
			s-1.4-0.6-1.4-1.4s0.6-1.4,1.4-1.4S212.4,135.9,212.4,136.6L212.4,136.6z M210,141.1h1.9v14.2H210V141.1z"/>
		<path class="st1" d="M224.7,154.5c-0.8,0.7-1.9,1-3,1c-2.7,0-4.2-1.5-4.2-4.1v-8.6H215v-1.6h2.5V138h1.9v3.1h4.3v1.6h-4.3v8.5
			c0,1.7,0.9,2.6,2.5,2.6c0.8,0,1.6-0.2,2.1-0.7L224.7,154.5L224.7,154.5z"/>
		<path class="st1" d="M226.2,153.7l0.9-1.5c1.1,0.9,3,1.6,5,1.6c2.7,0,3.8-0.9,3.8-2.3c0-3.7-9.2-0.8-9.2-6.4c0-2.3,2-4.1,5.6-4.1
			c1.8,0,3.8,0.5,5,1.3l-0.8,1.5c-1.2-0.9-2.7-1.2-4.2-1.2c-2.6,0-3.7,1-3.7,2.4c0,3.8,9.2,0.9,9.2,6.4c0,2.5-2.2,4.1-5.9,4.1
			C229.7,155.5,227.4,154.7,226.2,153.7L226.2,153.7z"/>
		<path class="st1" d="M260.4,141.1l-7.1,15.9c-1.2,2.8-2.7,3.7-4.7,3.7c-1.3,0-2.6-0.4-3.5-1.3l0.9-1.4c0.7,0.7,1.6,1.1,2.6,1.1
			c1.3,0,2.1-0.6,2.9-2.4l0.6-1.4l-6.3-14.2h2l5.3,12.1l5.3-12.1L260.4,141.1L260.4,141.1z"/>
		<path class="st1" d="M261.3,148.2c0-4.2,3.1-7.2,7.2-7.2s7.2,3,7.2,7.2s-3,7.2-7.2,7.2S261.3,152.5,261.3,148.2z M273.8,148.2
			c0-3.3-2.2-5.5-5.3-5.5s-5.3,2.2-5.3,5.5s2.3,5.5,5.3,5.5S273.8,151.6,273.8,148.2z"/>
		<path class="st1" d="M292.4,141.1v14.2h-1.8v-2.6c-1,1.7-2.8,2.7-5.1,2.7c-3.6,0-6-2-6-6.1v-8.2h1.9v8c0,3,1.6,4.6,4.3,4.6
			c3,0,4.8-1.9,4.8-5.2v-7.4H292.4L292.4,141.1z"/>
		<path class="st1" d="M306.4,141.3c0-1.9-1.6-3.3-4.3-3.3c-2.3,0-4,0.8-5.2,2.2l-1.4-1.1c1.5-1.8,3.7-2.8,6.7-2.8
			c3.8,0,6.2,1.8,6.2,4.7c0,4.6-4.9,4.8-4.9,8.7h-2C301.5,145.2,306.4,144.8,306.4,141.3L306.4,141.3z M301.1,154.1
			c0-0.8,0.6-1.4,1.4-1.4s1.4,0.6,1.4,1.4s-0.6,1.4-1.4,1.4S301.1,154.8,301.1,154.1z"/>
	</g>
</g>
</svg>
