<?xml version="1.0" encoding="utf-8"?>
<!-- Generator: Adobe Illustrator 27.7.0, SVG Export Plug-In . SVG Version: 6.00 Build 0)  -->
<svg version="1.1" id="Layer_1" xmlns="http://www.w3.org/2000/svg" xmlns:xlink="http://www.w3.org/1999/xlink" x="0px" y="0px"
	 viewBox="0 0 279.9 132.2" style="enable-background:new 0 0 279.9 132.2;" xml:space="preserve">
<style type="text/css">
	.st0{enable-background:new    ;}
	.st1{fill:#D75A30;}
</style>
<g class="st0">
	<path class="st1" d="M19.4,39.6v22.2h38.9v15.6H19.4V108H0V24h63.5v15.6C63.5,39.6,19.4,39.6,19.4,39.6z"/>
	<path class="st1" d="M73,24c0-5.9,4.7-10.4,11.6-10.4c7,0,11.6,4.3,11.6,10.1c0,6.2-4.7,10.8-11.6,10.8C77.7,34.4,73,29.9,73,24z
		 M75.3,43.4H94V108H75.3V43.4z"/>
	<path class="st1" d="M153.1,104.9c-3.8,2.8-9.5,4.1-15.2,4.1c-15.2,0-24.1-7.8-24.1-23.2V59.3h-10V44.9h10V29.2h18.7v15.7h16.1
		v14.4h-16.1v26.3c0,5.5,3,8.5,8,8.5c2.8,0,5.5-0.8,7.6-2.4L153.1,104.9z"/>
	<path class="st1" d="M205.3,104.9c-3.8,2.8-9.5,4.1-15.2,4.1c-15.2,0-24.1-7.8-24.1-23.2V59.3h-10V44.9h10V29.2h18.6v15.7h16.1
		v14.4h-16.1v26.3c0,5.5,3,8.5,8,8.5c2.8,0,5.5-0.8,7.6-2.4L205.3,104.9z"/>
	<path class="st1" d="M279.9,43.4l-29.2,68.5c-6.2,15.6-15.1,20.3-26.8,20.3c-6.6,0-13.8-2.2-18-5.9l6.8-13.3
		c2.9,2.5,6.8,4.1,10.6,4.1c5.2,0,8-2.3,10.6-8l0.2-0.6l-28-65h19.3l18.1,43.8l18.2-43.8h18.2L279.9,43.4L279.9,43.4z"/>
</g>
</svg>
