<?xml version="1.0" encoding="utf-8"?>
<!-- Generator: Adobe Illustrator 27.7.0, SVG Export Plug-In . SVG Version: 6.00 Build 0)  -->
<svg version="1.1" id="Layer_1" xmlns="http://www.w3.org/2000/svg" xmlns:xlink="http://www.w3.org/1999/xlink" x="0px" y="0px"
	 viewBox="0 0 117.4 226.2" style="enable-background:new 0 0 117.4 226.2;" xml:space="preserve">
<style type="text/css">
	.st0{fill:#F89723;}
	.st1{fill:#D75A30;}
</style>
<g>
	<path class="st0" d="M57.4,27.7c-0.6,0-1.2-0.6-1.2-1.2v-4c0-2.3,1.7-4,4-4.6c2.6-0.6,5.5-1.7,6.3-5.5c0.6-2.3,0-4.9-1.4-6.9
		c-1.4-2-3.5-3.2-5.8-3.2s-4.3,0.6-6.1,2s-2.6,3.7-2.6,5.8c0,0.6-0.6,1.2-1.2,1.2s-1.2-0.6-1.2-1.2c0-2.9,1.2-5.5,3.5-7.5
		c2-2,4.9-2.9,7.8-2.6c2.9,0.3,5.5,1.7,7.2,4.3s2.3,5.8,1.7,8.7c-0.9,3.7-3.7,6.3-8.1,7.2c-1.2,0.3-2.3,1.2-2.3,2.6v4.3
		C58.5,27.5,58,27.7,57.4,27.7"/>
	<path class="st0" d="M92.9,87.1c0.9,0,1.4,0.6,1.4,1.4c0,0,0.3,3.2,0.9,7.2c2.9,0.6,13.3,2,21.9-4.3c0.6-10.1,0.9-27.7-2.9-35.8
		s-26-11-26-11S78.2,65.5,58.8,65.5S29.4,44.5,29.4,44.5s-22.2,2.6-26,10.7s-3.7,25.7-3.2,35.8c8.7,6.3,18.7,5.2,21.9,4.6
		c0.6-4,0.9-7.2,0.9-7.2c0-0.9,0.9-1.4,1.4-1.4c0.9,0,1.4,0.9,1.4,1.4s-10.7,54.2-13.8,68.6c13.3,11.2,30.9,18.5,46.1,18.5
		s33.2-6.6,46.4-17.9c-2.9-14.4-13-68.3-13-68.9C91.4,87.7,92,87.1,92.9,87.1"/>
	<path class="st1" d="M20.8,101.6c0.3-0.9,0.3-2,0.6-2.9C20.2,99,18.2,99,16.1,99C11.8,99,5.8,98.1,0,94.6c0,2.3,0.3,3.7,0.3,3.7
		C8.4,101.6,16.7,101.6,20.8,101.6"/>
	<path class="st1" d="M100.9,99.3c-2,0-4-0.3-5.2-0.6c0.3,0.9,0.3,2,0.6,2.9c4,0.3,12.4,0.3,20.5-3.2c0,0,0-1.4,0.3-3.7
		C111.3,98.4,105.3,99.3,100.9,99.3"/>
	<path class="st1" d="M58,177.4c-15.6,0-33.2-6.9-46.7-18.2c-0.3,1.7-0.6,3.2-0.9,4.3c12.1,10.7,28.3,17.6,45.6,18.2c1.4,0,2,0,2,0
		s0.6,0,2,0c17.6-0.3,33.5-6.9,45.9-17.6c-0.3-1.2-0.6-2.6-0.9-4.3C91.4,170.8,73.5,177.7,58,177.4"/>
	<path class="st1" d="M37.5,51.7c2.6-1.2,4.3-2.9,5.8-4.6c2.3-2.9,3.7-5.5,5.2-8.1c3.5-5.8,5.2-8.4,10.4-8.4s6.9,2.6,10.4,8.7
		c1.4,2.3,2.9,5.2,5.2,8.1c1.4,1.7,3.2,3.5,5.8,4.6c1.2-1.2,2-2.3,2.6-3.5c-2-0.9-3.7-2.3-4.9-3.7c-2-2.6-3.5-5.5-4.9-7.5
		c-3.2-5.8-6.1-10.7-14.1-10.7s-11,4.9-14.1,10.7c-1.4,2.3-2.9,4.9-4.9,7.5c-1.2,1.4-2.9,2.9-5.2,3.7C35.5,49.1,36.6,50.2,37.5,51.7
		"/>
</g>
</svg>
