<?xml version="1.0" encoding="UTF-8"?>
<svg id="Layer_1" data-name="Layer 1" xmlns="http://www.w3.org/2000/svg" viewBox="0 0 500 500">
  <defs>
    <style>
      .cls-1 {
        fill: #f89723;
      }

      .cls-2 {
        fill: #d75a30;
      }
    </style>
  </defs>
  <path class="cls-1" d="m246.79,76.66c-1.62,0-2.92-1.33-2.91-2.94l.07-11.8c.03-6.15,4.54-11.46,10.71-12.63,6.76-1.28,15.33-4.94,17.82-15.09,1.62-6.61.29-13.58-3.64-19.12-3.73-5.26-9.22-8.5-15.48-9.11-6.3-.62-12.35,1.36-17.01,5.56-4.6,4.15-7.26,10.08-7.3,16.27,0,1.62-1.33,2.92-2.94,2.91-1.62,0-2.92-1.33-2.91-2.94.04-7.83,3.41-15.34,9.23-20.59,5.9-5.32,13.55-7.82,21.5-7.04,7.85.77,15.02,4.98,19.68,11.55,4.91,6.93,6.57,15.64,4.55,23.9-2.51,10.27-10.47,17.18-22.41,19.45-3.48.66-5.93,3.51-5.95,6.92l-.07,11.8c0,1.62-1.33,2.92-2.94,2.91"/>
  <path class="cls-1" d="m344.17,239.75c2.12-.18,4.02,1.45,4.18,3.6.02.19.69,8.89,2.35,20.18,8.3,1.58,36.29,5.15,60.41-11.92,1.34-27.36,2.03-76.04-8.05-98.55-10.01-22.35-71.39-30.12-71.39-30.12,0,0-27.38,57.42-81.42,57.12-54.04-.3-80.78-58.02-80.78-58.02,0,0-61.47,7.09-71.73,29.32-10.33,22.4-10.18,71.08-9.15,98.45,23.93,17.34,51.96,14.08,60.28,12.59,1.79-11.27,2.56-19.97,2.57-20.16.19-2.15,2.11-3.76,4.22-3.55,2.15.18,3.74,2.07,3.55,4.22-.11,1.33-29.56,149.19-38.07,188.97,36.47,31.21,85.05,50.67,127.41,50.91,42.35.24,91.15-18.68,127.97-49.48-8.06-39.87-35.85-188.05-35.95-189.38-.16-2.15,1.45-4.02,3.6-4.18"/>
  <path class="cls-2" d="m145.99,279.13c.58-2.68,1.11-5.36,1.59-7.99-3.53.54-8.46,1.07-14.31,1.07-12.29,0-28.58-2.37-44.18-11.84.36,6.26.68,10.04.68,10.04,22.08,9.32,45.21,9.38,56.23,8.71"/>
  <path class="cls-2" d="m366.32,272.86c-5.85-.03-10.78-.59-14.31-1.15.46,2.63.98,5.32,1.54,8,11.01.73,34.15.8,56.27-8.4,0,0,.34-3.78.74-10.04-15.66,9.38-31.96,11.66-44.25,11.59"/>
  <path class="cls-2" d="m248.52,488.64c-42.75-.24-91.57-19.4-128.77-50.28-.99,4.58-1.86,8.59-2.58,11.86,33.75,29.62,77.53,48.12,125.64,49.71,3.63-.1,5.66-.31,5.66-.31,0,0,2.02.23,5.65.37,48.12-1.06,92.1-19.06,126.18-48.31-.68-3.27-1.51-7.29-2.45-11.89-37.54,30.47-86.57,49.08-129.32,48.84"/>
  <path class="cls-2" d="m191.98,141.76c6.8-3.43,12.15-7.67,15.96-12.71,6.03-7.98,10.36-15.47,14.18-22.08,9.35-16.16,14.1-23.29,28.67-23.21,14.58.08,19.24,7.27,28.41,23.53,3.75,6.64,8,14.18,13.93,22.23,3.76,5.1,9.07,9.4,15.86,12.92,2.86-3.29,5.33-6.49,7.41-9.43-5.79-2.68-10.65-6.09-13.85-10.43-5.51-7.48-9.57-14.68-13.16-21.04-8.88-15.75-16.55-29.36-38.54-29.49-21.98-.12-29.81,13.4-38.86,29.05-3.66,6.31-7.8,13.47-13.39,20.89-3.24,4.3-8.12,7.65-13.93,10.26,2.05,2.95,4.49,6.18,7.32,9.5"/>
</svg>