<?xml version="1.0" encoding="utf-8"?>
<!-- Generator: Adobe Illustrator 27.7.0, SVG Export Plug-In . SVG Version: 6.00 Build 0)  -->
<svg version="1.1" id="Layer_1" xmlns="http://www.w3.org/2000/svg" xmlns:xlink="http://www.w3.org/1999/xlink" x="0px" y="0px"
	 viewBox="0 0 156.3 306.5" style="enable-background:new 0 0 156.3 306.5;" xml:space="preserve">
<style type="text/css">
	.st0{enable-background:new    ;}
	.st1{fill:#D75A30;}
	.st2{fill:#F89723;}
</style>
<g class="st0">
	<path class="st1" d="M10.9,223.5v12.4h21.7v8.7H10.9v17.1H0v-46.9h35.4v8.7C35.4,223.5,10.9,223.5,10.9,223.5z"/>
	<path class="st1" d="M40.8,214.8c0-3.3,2.6-5.8,6.5-5.8s6.5,2.4,6.5,5.6c0,3.5-2.6,6-6.5,6S40.8,218.1,40.8,214.8z M42.1,225.7
		h10.5v36H42.1V225.7z"/>
	<path class="st1" d="M85.5,260c-2.1,1.5-5.3,2.3-8.5,2.3c-8.5,0-13.5-4.4-13.5-12.9v-14.8H58v-8h5.6v-8.8H74v8.8h9v8h-9v14.7
		c0,3.1,1.7,4.8,4.5,4.8c1.5,0,3.1-0.5,4.2-1.3L85.5,260z"/>
	<path class="st1" d="M114.6,260c-2.1,1.5-5.3,2.3-8.5,2.3c-8.5,0-13.5-4.4-13.5-12.9v-14.8H87v-8h5.6v-8.8h10.5v8.8h9v8h-9v14.7
		c0,3.1,1.7,4.8,4.5,4.8c1.5,0,3.1-0.5,4.2-1.3L114.6,260z"/>
	<path class="st1" d="M156.3,225.7L140,263.9c-3.5,8.7-8.4,11.3-14.9,11.3c-3.7,0-7.7-1.2-10-3.3l3.8-7.4c1.6,1.4,3.8,2.3,5.9,2.3
		c2.9,0,4.5-1.3,5.9-4.5l0.1-0.3l-15.6-36.3H126l10.1,24.5l10.2-24.5H156.3z"/>
</g>
<g>
	<path class="st2" d="M76.8,27.8c-0.6,0-1.2-0.6-1.2-1.2v-4c0-2.3,1.7-4,4-4.6c2.6-0.6,5.5-1.7,6.3-5.5c0.6-2.3,0-4.9-1.4-6.9
		S81,2.4,78.7,2.4s-4.3,0.6-6.1,2S70,8.1,70,10.2c0,0.6-0.6,1.2-1.2,1.2s-1.2-0.6-1.2-1.2c0-2.9,1.2-5.5,3.5-7.5
		c2-2,4.9-2.9,7.8-2.6s5.5,1.7,7.2,4.3s2.3,5.8,1.7,8.7c-0.9,3.7-3.7,6.3-8.1,7.2c-1.2,0.3-2.3,1.2-2.3,2.6v4.3
		C78,27.5,77.4,27.8,76.8,27.8"/>
	<path class="st2" d="M112.3,87.2c0.9,0,1.4,0.6,1.4,1.4c0,0,0.3,3.2,0.9,7.2c2.9,0.6,13.3,2,21.9-4.3c0.6-10.1,0.9-27.7-2.9-35.8
		c-3.7-8.1-26-11-26-11s-10,20.9-29.3,20.9S48.9,44.5,48.9,44.5s-22.2,2.6-26,10.7S19.2,80.9,19.7,91c8.7,6.3,18.7,5.2,21.9,4.6
		c0.6-4,0.9-7.2,0.9-7.2c0-0.9,0.9-1.4,1.4-1.4c0.9,0,1.4,0.9,1.4,1.4S34.6,142.6,31.5,157c13.3,11.2,30.9,18.5,46.1,18.5
		s33.2-6.6,46.4-17.9c-2.9-14.4-13-68.3-13-68.9C110.9,87.8,111.4,87.2,112.3,87.2"/>
	<path class="st1" d="M40.2,101.6c0.3-0.9,0.3-2,0.6-2.9C39.6,99,37.6,99,35.6,99c-4.3,0-10.4-0.9-16.1-4.3c0,2.3,0.3,3.7,0.3,3.7
		C27.8,101.6,36.2,101.6,40.2,101.6"/>
	<path class="st1" d="M120.4,99.3c-2,0-4-0.3-5.2-0.6c0.3,0.9,0.3,2,0.6,2.9c4,0.3,12.4,0.3,20.5-3.2c0,0,0-1.4,0.3-3.7
		C130.8,98.4,124.7,99.3,120.4,99.3"/>
	<path class="st1" d="M77.4,177.5c-15.6,0-33.2-6.9-46.7-18.2c-0.3,1.7-0.6,3.2-0.9,4.3c12.1,10.7,28.3,17.6,45.6,18.2
		c1.4,0,2,0,2,0s0.6,0,2,0c17.6-0.3,33.5-6.9,45.9-17.6c-0.3-1.2-0.6-2.6-0.9-4.3C110.9,170.8,93,177.7,77.4,177.5"/>
	<path class="st1" d="M56.9,51.7c2.6-1.2,4.3-2.9,5.8-4.6c2.3-2.9,3.7-5.5,5.2-8.1c3.5-5.8,5.2-8.4,10.4-8.4c5.2,0,6.9,2.6,10.4,8.7
		c1.4,2.3,2.9,5.2,5.2,8.1c1.4,1.7,3.2,3.5,5.8,4.6c1.2-1.2,2-2.3,2.6-3.5c-2-0.9-3.7-2.3-4.9-3.7c-2-2.6-3.5-5.5-4.9-7.5
		c-3.2-5.8-6.1-10.7-14.1-10.7s-11,4.9-14.1,10.7c-1.4,2.3-2.9,4.9-4.9,7.5c-1.2,1.4-2.9,2.9-5.2,3.7C54.9,49.1,56.1,50.3,56.9,51.7
		"/>
</g>
</svg>
